<?xml version="1.0" standalone="no"?>
<!DOCTYPE svg PUBLIC "-//W3C//DTD SVG 20010904//EN"
 "http://www.w3.org/TR/2001/REC-SVG-20010904/DTD/svg10.dtd">
<svg version="1.0" xmlns="http://www.w3.org/2000/svg"
 width="300.000000pt" height="289.000000pt" viewBox="0 0 300.000000 289.000000"
 preserveAspectRatio="xMidYMid meet">

<g transform="translate(0.000000,289.000000) scale(0.100000,-0.100000)"
fill="#000000" stroke="none">
<path d="M443 2879 c-191 -32 -341 -160 -415 -355 l-23 -59 -3 -985 c-2 -872
-1 -993 13 -1057 42 -188 170 -332 353 -395 l67 -23 1065 0 1065 0 66 23 c166
57 279 171 341 342 l23 65 0 1010 0 1010 -26 71 c-32 88 -87 171 -147 225 -62
55 -191 116 -272 129 -80 12 -2031 12 -2107 -1z m931 -794 c116 -24 116 -25
116 -165 0 -66 -3 -120 -6 -120 -4 0 -39 12 -78 27 -63 24 -85 27 -206 27
-116 1 -141 -2 -175 -19 -48 -24 -69 -63 -60 -111 7 -42 69 -91 165 -130 251
-103 346 -170 398 -281 23 -50 27 -71 27 -153 0 -88 -3 -101 -33 -162 -57
-116 -159 -185 -315 -215 -141 -27 -374 -5 -477 45 l-35 17 -3 125 c-1 68 0
130 2 137 4 9 25 3 78 -22 103 -49 178 -66 289 -66 117 -1 178 20 204 71 37
72 -2 131 -122 187 -316 145 -371 183 -421 291 -23 49 -27 70 -27 152 0 82 4
103 27 152 50 108 138 178 268 212 74 20 294 20 384 1z m671 -170 l-8 -144 99
-3 99 -3 0 -110 0 -110 -97 -3 -98 -3 0 -235 c0 -303 -1 -300 130 -306 l55 -3
3 -91 c3 -104 2 -106 -76 -123 -172 -36 -313 14 -366 129 -20 42 -21 66 -24
338 l-3 292 -65 0 -64 0 0 115 0 115 64 0 64 0 6 38 c3 20 8 76 12 125 3 48
11 90 17 94 10 6 179 30 230 32 l29 1 -7 -145z"/>
</g>
</svg>
